{
.appVersion = "3343";
.formatVersion = 3;
DisplayStrings = (
s
);
date = "2025-06-27 17:19:27 +0000";
familyName = "SE—Bold";
fontMaster = (
{
iconName = Bold;
id = m002;
metricValues = (
{
over = 16;
pos = 760;
},
{
over = 16;
pos = 700;
},
{
over = 16;
pos = 500;
},
{
over = -16;
},
{
over = -16;
pos = -212;
},
{
}
);
name = Bold;
userData = {
GSCornerRadius = 5;
};
}
);
glyphs = (
{
glyphname = A;
lastChange = "2025-06-27 17:19:40 +0000";
layers = (
{
layerId = m002;
shapes = (
{
closed = 1;
nodes = (
(582,0,ls),
(585,0,o),
(587,2,o),
(586,6,cs),
(351,696,ls),
(350,698,o),
(349,700,o),
(346,700,cs),
(274,700,ls),
(271,700,o),
(269,698,o),
(270,694,cs),
(505,4,ls),
(506,2,o),
(507,0,o),
(510,0,cs)
);
},
{
closed = 1;
nodes = (
(22,6,ls),
(21,2,o),
(23,0,o),
(26,0,cs),
(72,0,ls),
(75,0,o),
(76,2,o),
(77,4,cs),
(307,694,ls),
(308,698,o),
(306,700,o),
(303,700,cs),
(272,700,ls),
(269,700,o),
(268,698,o),
(267,696,cs)
);
},
{
closed = 1;
nodes = (
(425,290,ls),
(425,293,o),
(423,295,o),
(420,295,cs),
(166,295,ls),
(163,295,o),
(161,293,o),
(161,290,cs),
(161,269,ls),
(161,266,o),
(163,264,o),
(166,264,cs),
(420,264,ls),
(423,264,o),
(425,266,o),
(425,269,cs)
);
}
);
width = 608;
}
);
unicode = 65;
},
{
glyphname = B;
lastChange = "2025-06-27 17:19:40 +0000";
layers = (
{
layerId = m002;
shapes = (
{
closed = 1;
nodes = (
(315,0,ls),
(455,0,o),
(535,67,o),
(535,204,cs),
(535,338,o),
(415,406,o),
(305,406,cs),
(124,405,ls),
(121,405,o),
(119,403,o),
(119,400,cs),
(119,381,ls),
(119,378,o),
(121,376,o),
(124,376,cs),
(305,376,ls),
(402,376,o),
(452,303,o),
(452,222,cs),
(452,180,ls),
(452,83,o),
(430,30,o),
(315,30,cs),
(142,30,ls),
(139,30,o),
(137,29,o),
(137,25,cs),
(139,5,ls),
(139,1,o),
(141,0,o),
(144,0,cs)
);
},
{
closed = 1;
nodes = (
(142,0,ls),
(145,0,o),
(147,2,o),
(147,5,cs),
(147,695,ls),
(147,698,o),
(145,700,o),
(142,700,cs),
(70,700,ls),
(67,700,o),
(65,698,o),
(65,695,cs),
(65,5,ls),
(65,2,o),
(67,0,o),
(70,0,cs)
);
},
{
closed = 1;
nodes = (
(275,376,ls),
(365,376,o),
(495,404,o),
(495,542,cs),
(495,642,o),
(443,702,o),
(305,701,cs),
(123,700,ls),
(121,700,o),
(118,699,o),
(117,696,cs),
(107,677,ls),
(105,673,o),
(107,671,o),
(111,671,cs),
(305,671,ls),
(372,671,o),
(412,630,o),
(412,548,cs),
(412,522,ls),
(412,455,o),
(370,406,o),
(275,406,cs),
(142,406,ls),
(139,406,o),
(137,405,o),
(137,401,cs),
(139,381,ls),
(139,377,o),
(141,376,o),
(144,376,cs)
);
}
);
width = 575;
}
);
unicode = 66;
},
{
glyphname = C;
lastChange = "2025-06-27 17:19:40 +0000";
layers = (
{
layerId = m002;
shapes = (
{
closed = 1;
nodes = (
(614,223,ls),
(611,223,o),
(609,221,o),
(609,218,cs),
(597,68,o),
(521,14,o),
(380,14,cs),
(243,14,o),
(113,91,o),
(113,304,cs),
(113,386,ls),
(113,598,o),
(243,685,o),
(380,685,cs),
(507,685,o),
(607,621,o),
(609,471,cs),
(609,468,o),
(611,466,o),
(614,466,cs),
(684,466,ls),
(687,466,o),
(689,468,o),
(689,471,cs),
(676,648,o),
(518,715,o),
(380,715,cs),
(230,715,o),
(30,623,o),
(30,368,cs),
(30,332,ls),
(30,75,o),
(230,-16,o),
(380,-16,cs),
(515,-16,o),
(673,48,o),
(686,218,cs),
(686,221,o),
(684,223,o),
(681,223,cs)
);
}
);
width = 719;
}
);
unicode = 67;
},
{
glyphname = D;
lastChange = "2025-06-27 17:19:40 +0000";
layers = (
{
layerId = m002;
shapes = (
{
closed = 1;
nodes = (
(142,0,ls),
(145,0,o),
(147,2,o),
(147,5,cs),
(147,695,ls),
(147,698,o),
(145,700,o),
(142,700,cs),
(70,700,ls),
(67,700,o),
(65,698,o),
(65,695,cs),
(65,5,ls),
(65,2,o),
(67,0,o),
(70,0,cs)
);
},
{
closed = 1;
nodes = (
(260,25,ls),
(260,28,o),
(258,30,o),
(255,30,cs),
(142,30,ls),
(139,30,o),
(137,29,o),
(137,25,cs),
(139,5,ls),
(139,1,o),
(141,0,o),
(144,0,cs),
(255,0,ls),
(258,0,o),
(260,2,o),
(260,5,cs)
);
},
{
closed = 1;
nodes = (
(260,696,ls),
(260,699,o),
(258,701,o),
(255,701,cs),
(123,700,ls),
(121,700,o),
(118,699,o),
(117,696,cs),
(107,677,ls),
(105,673,o),
(107,671,o),
(111,671,cs),
(255,671,ls),
(258,671,o),
(260,673,o),
(260,676,cs)
);
},
{
closed = 1;
nodes = (
(399,668,o),
(525,596,o),
(525,388,cs),
(525,306,ls),
(525,97,o),
(399,33,o),
(265,30,cs),
(262,30,o),
(260,28,o),
(260,25,cs),
(260,5,ls),
(260,2,o),
(262,0,o),
(265,0,cs),
(414,3,o),
(608,81,o),
(608,334,cs),
(608,370,ls),
(608,621,o),
(414,698,o),
(265,701,cs),
(262,701,o),
(260,699,o),
(260,696,cs),
(260,676,ls),
(260,673,o),
(262,671,o),
(265,671,cs)
);
}
);
width = 638;
}
);
unicode = 68;
},
{
glyphname = E;
lastChange = "2025-06-27 17:19:40 +0000";
layers = (
{
layerId = m002;
shapes = (
{
closed = 1;
nodes = (
(142,0,ls),
(145,0,o),
(147,2,o),
(147,5,cs),
(147,669,l),
(500,669,ls),
(503,669,o),
(505,671,o),
(505,674,cs),
(505,695,ls),
(505,698,o),
(503,700,o),
(500,700,cs),
(147,700,l),
(70,700,ls),
(67,700,o),
(65,698,o),
(65,695,cs),
(65,5,ls),
(65,2,o),
(67,0,o),
(70,0,cs)
);
},
{
closed = 1;
nodes = (
(500,0,ls),
(503,0,o),
(505,2,o),
(505,5,cs),
(505,26,ls),
(505,29,o),
(503,31,o),
(500,31,cs),
(152,31,ls),
(149,31,o),
(147,29,o),
(147,26,cs),
(147,5,ls),
(147,2,o),
(149,0,o),
(152,0,cs)
);
},
{
closed = 1;
nodes = (
(388,370,ls),
(391,370,o),
(393,372,o),
(393,375,cs),
(393,396,ls),
(393,399,o),
(391,401,o),
(388,401,cs),
(152,401,ls),
(149,401,o),
(147,399,o),
(147,396,cs),
(147,375,ls),
(147,372,o),
(149,370,o),
(152,370,cs)
);
}
);
width = 535;
}
);
unicode = 69;
},
{
glyphname = F;
lastChange = "2025-06-27 17:19:40 +0000";
layers = (
{
layerId = m002;
shapes = (
{
closed = 1;
nodes = (
(142,0,ls),
(145,0,o),
(147,2,o),
(147,5,cs),
(147,669,l),
(500,669,ls),
(503,669,o),
(505,671,o),
(505,674,cs),
(505,695,ls),
(505,698,o),
(503,700,o),
(500,700,cs),
(147,700,l),
(147,700,l),
(70,700,ls),
(67,700,o),
(65,698,o),
(65,695,cs),
(65,5,ls),
(65,2,o),
(67,0,o),
(70,0,cs)
);
},
{
closed = 1;
nodes = (
(418,300,ls),
(421,300,o),
(423,302,o),
(423,305,cs),
(423,326,ls),
(423,329,o),
(421,331,o),
(418,331,cs),
(152,331,ls),
(149,331,o),
(147,329,o),
(147,326,cs),
(147,305,ls),
(147,302,o),
(149,300,o),
(152,300,cs)
);
}
);
width = 535;
}
);
unicode = 70;
},
{
glyphname = G;
lastChange = "2025-06-27 17:19:40 +0000";
layers = (
{
layerId = m002;
shapes = (
{
closed = 1;
nodes = (
(621,291,ls),
(624,291,o),
(626,293,o),
(626,296,cs),
(626,317,ls),
(626,320,o),
(624,322,o),
(621,322,cs),
(436,322,ls),
(433,322,o),
(431,320,o),
(431,317,cs),
(431,296,ls),
(431,293,o),
(433,291,o),
(436,291,cs)
);
},
{
closed = 1;
nodes = (
(554,291,ls),
(551,291,o),
(549,289,o),
(549,286,cs),
(548,69,o),
(473,14,o),
(331,14,cs),
(194,14,o),
(113,91,o),
(113,304,cs),
(113,386,ls),
(113,598,o),
(194,685,o),
(331,685,cs),
(458,685,o),
(547,621,o),
(549,471,cs),
(549,468,o),
(551,466,o),
(554,466,cs),
(624,466,ls),
(627,466,o),
(629,468,o),
(629,471,cs),
(626,648,o),
(469,715,o),
(331,715,cs),
(181,715,o),
(30,623,o),
(30,368,cs),
(30,332,ls),
(30,75,o),
(191,-16,o),
(341,-16,cs),
(476,-16,o),
(601,68,o),
(603,286,cs),
(603,289,o),
(601,291,o),
(598,291,cs)
);
},
{
closed = 1;
nodes = (
(589,5,ls),
(589,2,o),
(591,0,o),
(594,0,cs),
(621,0,ls),
(624,0,o),
(626,2,o),
(626,5,cs),
(626,286,ls),
(626,289,o),
(624,291,o),
(621,291,cs),
(594,291,ls),
(591,291,o),
(589,289,o),
(589,286,cs)
);
}
);
width = 674;
}
);
unicode = 71;
},
{
glyphname = H;
lastChange = "2025-06-27 17:19:40 +0000";
layers = (
{
layerId = m002;
shapes = (
{
closed = 1;
nodes = (
(142,0,ls),
(145,0,o),
(147,2,o),
(147,5,cs),
(147,370,l),
(563,370,l),
(563,5,ls),
(563,2,o),
(565,0,o),
(568,0,cs),
(640,0,ls),
(643,0,o),
(645,2,o),
(645,5,cs),
(645,695,ls),
(645,698,o),
(643,700,o),
(640,700,cs),
(568,700,ls),
(565,700,o),
(563,698,o),
(563,695,cs),
(563,401,l),
(147,401,l),
(147,695,ls),
(147,698,o),
(145,700,o),
(142,700,cs),
(70,700,ls),
(67,700,o),
(65,698,o),
(65,695,cs),
(65,5,ls),
(65,2,o),
(67,0,o),
(70,0,cs)
);
}
);
width = 710;
}
);
unicode = 72;
},
{
glyphname = I;
lastChange = "2025-06-27 17:19:40 +0000";
layers = (
{
layerId = m002;
shapes = (
{
closed = 1;
nodes = (
(70,700,ls),
(67,700,o),
(65,698,o),
(65,695,cs),
(65,5,ls),
(65,2,o),
(67,0,o),
(70,0,cs),
(142,0,ls),
(145,0,o),
(147,2,o),
(147,5,cs),
(147,695,ls),
(147,698,o),
(145,700,o),
(142,700,cs)
);
}
);
width = 212;
}
);
unicode = 73;
},
{
glyphname = J;
lastChange = "2025-06-27 17:19:40 +0000";
layers = (
{
layerId = m002;
shapes = (
{
closed = 1;
nodes = (
(384,198,ls),
(387,198,o),
(389,200,o),
(389,203,cs),
(389,695,ls),
(389,698,o),
(387,700,o),
(384,700,cs),
(312,700,ls),
(309,700,o),
(307,698,o),
(307,695,cs),
(307,203,ls),
(307,200,o),
(309,198,o),
(312,198,cs)
);
},
{
closed = 1;
nodes = (
(307,182,ls),
(307,80,o),
(296,12,o),
(199,12,cs),
(131,12,o),
(99,57,o),
(98,130,cs),
(98,133,o),
(96,135,o),
(93,135,cs),
(25,135,ls),
(22,135,o),
(20,133,o),
(20,130,cs),
(23,28,o),
(113,-16,o),
(199,-16,cs),
(309,-16,o),
(389,36,o),
(389,181,cs),
(389,193,ls),
(389,196,o),
(387,198,o),
(384,198,cs),
(312,198,ls),
(309,198,o),
(307,196,o),
(307,193,cs)
);
}
);
width = 454;
}
);
unicode = 74;
},
{
glyphname = K;
lastChange = "2025-06-27 17:19:40 +0000";
layers = (
{
layerId = m002;
shapes = (
{
closed = 1;
nodes = (
(112,222,ls),
(114,222,o),
(117,223,o),
(118,225,cs),
(534,694,ls),
(537,698,o),
(535,700,o),
(531,700,cs),
(500,700,ls),
(498,700,o),
(495,699,o),
(494,697,cs),
(78,228,ls),
(75,224,o),
(77,222,o),
(81,222,cs)
);
},
{
closed = 1;
nodes = (
(70,700,ls),
(67,700,o),
(65,698,o),
(65,695,cs),
(65,5,ls),
(65,2,o),
(67,0,o),
(70,0,cs),
(142,0,ls),
(145,0,o),
(147,2,o),
(147,5,cs),
(147,695,ls),
(147,698,o),
(145,700,o),
(142,700,cs)
);
},
{
closed = 1;
nodes = (
(226,377,ls),
(224,374,o),
(225,372,o),
(226,370,cs),
(483,3,ls),
(484,1,o),
(487,0,o),
(489,0,cs),
(570,0,ls),
(574,0,o),
(575,3,o),
(573,6,cs),
(281,430,ls),
(279,433,o),
(276,434,o),
(274,431,cs)
);
}
);
width = 577;
}
);
unicode = 75;
},
{
glyphname = L;
lastChange = "2025-06-27 17:19:40 +0000";
layers = (
{
layerId = m002;
shapes = (
{
closed = 1;
nodes = (
(142,0,ls),
(145,0,o),
(147,2,o),
(147,5,cs),
(147,695,ls),
(147,698,o),
(145,700,o),
(142,700,cs),
(70,700,ls),
(67,700,o),
(65,698,o),
(65,695,cs),
(65,5,ls),
(65,2,o),
(67,0,o),
(70,0,cs)
);
},
{
closed = 1;
nodes = (
(500,0,ls),
(503,0,o),
(505,2,o),
(505,5,cs),
(505,26,ls),
(505,29,o),
(503,31,o),
(500,31,cs),
(152,31,ls),
(149,31,o),
(147,29,o),
(147,26,cs),
(147,5,ls),
(147,2,o),
(149,0,o),
(152,0,cs)
);
}
);
width = 535;
}
);
unicode = 76;
},
{
glyphname = M;
lastChange = "2025-06-27 17:19:40 +0000";
layers = (
{
layerId = m002;
shapes = (
{
closed = 1;
nodes = (
(750,0,ls),
(753,0,o),
(755,2,o),
(755,5,cs),
(755,689,ls),
(755,694,o),
(751,695,o),
(749,691,cs),
(675,576,ls),
(674,574,o),
(673,572,o),
(673,570,cs),
(673,5,ls),
(673,2,o),
(675,0,o),
(678,0,cs)
);
},
{
closed = 1;
nodes = (
(430,0,ls),
(432,0,o),
(435,2,o),
(436,4,cs),
(752,694,ls),
(753,697,o),
(752,700,o),
(749,700,cs),
(719,700,ls),
(717,700,o),
(714,698,o),
(713,696,cs),
(441,99,l),
(103,697,ls),
(102,699,o),
(99,700,o),
(97,700,cs),
(70,700,ls),
(67,700,o),
(65,698,o),
(65,695,cs),
(65,6,ls),
(65,3,o),
(67,1,o),
(70,1,cs),
(96,1,ls),
(99,1,o),
(101,3,o),
(101,6,cs),
(101,536,l),
(407,4,ls),
(408,2,o),
(411,1,o),
(413,1,cs)
);
}
);
width = 820;
}
);
unicode = 77;
},
{
glyphname = N;
lastChange = "2025-06-27 17:19:40 +0000";
layers = (
{
layerId = m002;
shapes = (
{
closed = 1;
nodes = (
(589,0,ls),
(592,0,o),
(594,2,o),
(594,5,cs),
(594,695,ls),
(594,698,o),
(592,700,o),
(589,700,cs),
(563,700,ls),
(560,700,o),
(558,698,o),
(558,695,cs),
(558,5,ls),
(558,2,o),
(560,0,o),
(563,0,cs)
);
},
{
closed = 1;
nodes = (
(559,113,ls),
(559,116,o),
(558,117,o),
(557,119,cs),
(103,697,ls),
(102,699,o),
(99,700,o),
(97,700,cs),
(70,700,ls),
(67,700,o),
(65,698,o),
(65,695,cs),
(65,6,ls),
(65,3,o),
(67,1,o),
(70,1,cs),
(96,1,ls),
(99,1,o),
(101,3,o),
(101,6,cs),
(101,574,l),
(552,8,ls),
(555,5,o),
(558,6,o),
(558,10,cs)
);
}
);
width = 659;
}
);
unicode = 78;
},
{
glyphname = O;
lastChange = "2025-06-27 17:19:40 +0000";
layers = (
{
layerId = m002;
shapes = (
{
closed = 1;
nodes = (
(530,-16,o),
(730,75,o),
(730,332,cs),
(730,368,ls),
(730,623,o),
(530,715,o),
(380,715,cs),
(230,715,o),
(30,623,o),
(30,368,cs),
(30,332,ls),
(30,75,o),
(230,-16,o),
(380,-16,cs)
);
},
{
closed = 1;
nodes = (
(243,14,o),
(113,91,o),
(113,304,cs),
(113,386,ls),
(113,598,o),
(243,685,o),
(380,685,cs),
(517,685,o),
(646,598,o),
(646,386,cs),
(646,304,ls),
(646,97,o),
(535,14,o),
(380,14,cs)
);
}
);
width = 760;
}
);
unicode = 79;
},
{
glyphname = P;
lastChange = "2025-06-27 17:19:40 +0000";
layers = (
{
layerId = m002;
shapes = (
{
closed = 1;
nodes = (
(70,700,ls),
(67,700,o),
(65,698,o),
(65,695,cs),
(65,5,ls),
(65,2,o),
(67,0,o),
(70,0,cs),
(142,0,ls),
(145,0,o),
(147,2,o),
(147,5,cs),
(147,695,ls),
(147,698,o),
(145,700,o),
(142,700,cs)
);
},
{
closed = 1;
nodes = (
(285,675,ls),
(285,672,o),
(287,670,o),
(290,670,cs),
(403,668,o),
(422,599,o),
(422,503,cs),
(422,476,ls),
(422,374,o),
(402,284,o),
(285,284,cs),
(101,284,ls),
(98,284,o),
(96,282,o),
(96,279,cs),
(96,259,ls),
(96,256,o),
(98,254,o),
(101,254,cs),
(285,254,ls),
(415,254,o),
(505,339,o),
(505,484,cs),
(505,624,o),
(417,698,o),
(290,700,cs),
(287,700,o),
(285,698,o),
(285,695,cs)
);
},
{
closed = 1;
nodes = (
(96,675,ls),
(96,672,o),
(98,670,o),
(101,670,cs),
(280,670,ls),
(283,670,o),
(285,672,o),
(285,675,cs),
(285,695,ls),
(285,698,o),
(283,700,o),
(280,700,cs),
(101,700,ls),
(98,700,o),
(96,698,o),
(96,695,cs)
);
}
);
width = 535;
}
);
unicode = 80;
},
{
glyphname = Q;
lastChange = "2025-06-27 17:19:40 +0000";
layers = (
{
layerId = m002;
shapes = (
{
closed = 1;
nodes = (
(304,-1,ls),
(301,-1,o),
(299,-3,o),
(299,-6,cs),
(299,-17,ls),
(299,-163,o),
(402,-228,o),
(495,-228,cs),
(568,-228,o),
(644,-190,o),
(647,-104,cs),
(647,-101,o),
(645,-99,o),
(642,-99,cs),
(566,-99,ls),
(563,-99,o),
(561,-101,o),
(561,-104,cs),
(560,-164,o),
(534,-203,o),
(477,-203,cs),
(395,-203,o),
(402,-128,o),
(402,-17,cs),
(402,-6,ls),
(402,-3,o),
(400,-1,o),
(397,-1,cs)
);
},
{
closed = 1;
nodes = (
(500,-16,o),
(670,75,o),
(670,332,cs),
(670,368,ls),
(670,623,o),
(500,715,o),
(350,715,cs),
(200,715,o),
(30,623,o),
(30,368,cs),
(30,332,ls),
(30,75,o),
(200,-16,o),
(350,-16,cs)
);
},
{
closed = 1;
nodes = (
(213,14,o),
(113,91,o),
(113,304,cs),
(113,386,ls),
(113,598,o),
(213,685,o),
(350,685,cs),
(487,685,o),
(586,598,o),
(586,386,cs),
(586,304,ls),
(586,97,o),
(505,14,o),
(350,14,cs)
);
}
);
width = 700;
}
);
unicode = 81;
},
{
glyphname = R;
lastChange = "2025-06-27 17:19:40 +0000";
layers = (
{
layerId = m002;
shapes = (
{
closed = 1;
nodes = (
(70,700,ls),
(67,700,o),
(65,698,o),
(65,695,cs),
(65,5,ls),
(65,2,o),
(67,0,o),
(70,0,cs),
(142,0,ls),
(145,0,o),
(147,2,o),
(147,5,cs),
(147,695,ls),
(147,698,o),
(145,700,o),
(142,700,cs)
);
},
{
closed = 1;
nodes = (
(285,675,ls),
(285,672,o),
(287,670,o),
(290,670,cs),
(403,668,o),
(422,599,o),
(422,513,cs),
(422,486,ls),
(422,384,o),
(402,304,o),
(285,304,cs),
(101,304,ls),
(98,304,o),
(96,302,o),
(96,299,cs),
(96,279,ls),
(96,276,o),
(98,274,o),
(101,274,cs),
(285,274,ls),
(415,274,o),
(505,349,o),
(505,494,cs),
(505,624,o),
(417,698,o),
(290,700,cs),
(287,700,o),
(285,698,o),
(285,695,cs)
);
},
{
closed = 1;
nodes = (
(96,675,ls),
(96,672,o),
(98,670,o),
(101,670,cs),
(280,670,ls),
(283,670,o),
(285,672,o),
(285,675,cs),
(285,695,ls),
(285,698,o),
(283,700,o),
(280,700,cs),
(101,700,ls),
(98,700,o),
(96,698,o),
(96,695,cs)
);
},
{
closed = 1;
nodes = (
(429,3,ls),
(430,1,o),
(433,0,o),
(435,0,cs),
(516,0,ls),
(520,0,o),
(521,2,o),
(519,6,cs),
(355,279,ls),
(354,281,o),
(351,282,o),
(349,282,cs),
(274,279,ls),
(270,279,o),
(268,277,o),
(270,273,cs)
);
}
);
width = 575;
}
);
unicode = 82;
},
{
glyphname = S;
lastChange = "2025-06-27 17:19:40 +0000";
layers = (
{
layerId = m002;
shapes = (
{
closed = 1;
nodes = (
(478,545,ls),
(481,545,o),
(483,547,o),
(483,550,cs),
(479,692,o),
(326,716,o),
(264,716,cs),
(179,716,o),
(47,658,o),
(47,521,cs),
(47,413,o),
(181,363,o),
(225,340,cs),
(269,317,ls),
(307,297,o),
(458,224,o),
(458,133,cs),
(458,66,o),
(390,17,o),
(276,17,cs),
(178,17,o),
(106,76,o),
(104,182,cs),
(104,185,o),
(102,187,o),
(99,187,cs),
(35,187,ls),
(32,187,o),
(30,185,o),
(30,182,cs),
(34,40,o),
(183,-16,o),
(282,-16,cs),
(399,-16,o),
(514,46,o),
(514,162,cs),
(514,285,o),
(369,352,o),
(305,384,cs),
(265,404,ls),
(225,424,o),
(102,481,o),
(102,559,cs),
(102,627,o),
(175,684,o),
(264,684,cs),
(372,684,o),
(406,624,o),
(407,550,cs),
(407,547,o),
(409,545,o),
(412,545,cs)
);
}
);
width = 538;
}
);
unicode = 83;
},
{
glyphname = T;
lastChange = "2025-06-27 17:19:40 +0000";
layers = (
{
layerId = m002;
shapes = (
{
closed = 1;
nodes = (
(30,674,ls),
(30,671,o),
(32,669,o),
(35,669,cs),
(565,669,ls),
(568,669,o),
(570,671,o),
(570,674,cs),
(570,695,ls),
(570,698,o),
(568,700,o),
(565,700,cs),
(35,700,ls),
(32,700,o),
(30,698,o),
(30,695,cs)
);
},
{
closed = 1;
nodes = (
(260,5,ls),
(260,2,o),
(262,0,o),
(265,0,cs),
(337,0,ls),
(340,0,o),
(342,2,o),
(342,5,cs),
(342,695,ls),
(342,698,o),
(340,700,o),
(337,700,cs),
(265,700,ls),
(262,700,o),
(260,698,o),
(260,695,cs)
);
}
);
width = 600;
}
);
unicode = 84;
},
{
glyphname = U;
lastChange = "2025-06-27 17:19:40 +0000";
layers = (
{
layerId = m002;
shapes = (
{
closed = 1;
nodes = (
(593,700,ls),
(590,700,o),
(588,698,o),
(588,695,cs),
(588,274,ls),
(588,68,o),
(465,20,o),
(340,20,cs),
(243,20,o),
(143,71,o),
(143,274,cs),
(143,695,ls),
(143,698,o),
(141,700,o),
(138,700,cs),
(65,700,ls),
(62,700,o),
(60,698,o),
(60,695,cs),
(60,292,ls),
(60,45,o),
(237,-16,o),
(336,-16,cs),
(457,-16,o),
(624,25,o),
(624,272,c),
(624,695,ls),
(624,698,o),
(622,700,o),
(619,700,cs)
);
}
);
width = 684;
}
);
unicode = 85;
},
{
glyphname = V;
lastChange = "2025-06-27 17:19:40 +0000";
layers = (
{
layerId = m002;
shapes = (
{
closed = 1;
nodes = (
(384,0,ls),
(387,0,o),
(389,2,o),
(388,6,cs),
(124,696,ls),
(123,698,o),
(120,700,o),
(118,700,cs),
(46,700,ls),
(43,700,o),
(41,698,o),
(42,694,cs),
(306,4,ls),
(307,2,o),
(310,0,o),
(312,0,cs)
);
},
{
closed = 1;
nodes = (
(350,6,ls),
(349,2,o),
(351,0,o),
(354,0,cs),
(386,0,ls),
(388,0,o),
(391,2,o),
(392,4,cs),
(658,694,ls),
(659,698,o),
(657,700,o),
(654,700,cs),
(622,700,ls),
(620,700,o),
(617,698,o),
(616,696,cs)
);
}
);
width = 700;
}
);
unicode = 86;
},
{
glyphname = W;
lastChange = "2025-06-27 17:19:40 +0000";
layers = (
{
layerId = m002;
shapes = (
{
closed = 1;
nodes = (
(334,0,ls),
(337,0,o),
(339,2,o),
(338,6,cs),
(123,696,ls),
(122,698,o),
(121,700,o),
(118,700,cs),
(46,700,ls),
(43,700,o),
(41,698,o),
(42,694,cs),
(257,4,ls),
(258,2,o),
(259,0,o),
(262,0,cs)
);
},
{
closed = 1;
nodes = (
(300,6,ls),
(299,2,o),
(301,0,o),
(304,0,cs),
(336,0,ls),
(339,0,o),
(340,2,o),
(341,4,cs),
(558,694,ls),
(559,698,o),
(557,700,o),
(554,700,cs),
(522,700,ls),
(519,700,o),
(518,698,o),
(517,696,cs)
);
},
{
closed = 1;
nodes = (
(772,0,ls),
(775,0,o),
(777,2,o),
(776,6,cs),
(562,694,ls),
(561,697,o),
(557,698,o),
(555,695,cs),
(501,639,ls),
(499,637,o),
(498,634,o),
(499,632,cs),
(695,4,ls),
(696,2,o),
(697,0,o),
(700,0,cs)
);
},
{
closed = 1;
nodes = (
(738,6,ls),
(737,2,o),
(739,0,o),
(742,0,cs),
(774,0,ls),
(777,0,o),
(778,2,o),
(779,4,cs),
(996,694,ls),
(997,698,o),
(995,700,o),
(992,700,cs),
(960,700,ls),
(957,700,o),
(956,698,o),
(955,696,cs)
);
}
);
width = 1038;
}
);
unicode = 87;
},
{
glyphname = X;
lastChange = "2025-06-27 17:19:40 +0000";
layers = (
{
layerId = m002;
shapes = (
{
closed = 1;
nodes = (
(677,0,ls),
(681,0,o),
(683,3,o),
(681,6,cs),
(179,697,ls),
(178,699,o),
(175,700,o),
(173,700,cs),
(83,700,ls),
(79,700,o),
(77,697,o),
(79,694,cs),
(581,3,ls),
(582,1,o),
(585,0,o),
(587,0,cs)
);
},
{
closed = 1;
nodes = (
(386,357,ls),
(388,354,o),
(391,355,o),
(393,357,cs),
(660,694,ls),
(662,697,o),
(661,700,o),
(657,700,cs),
(617,700,ls),
(615,700,o),
(612,699,o),
(611,697,cs),
(366,390,ls),
(364,387,o),
(364,386,o),
(366,383,cs)
);
},
{
closed = 1;
nodes = (
(356,382,ls),
(354,385,o),
(351,384,o),
(349,382,cs),
(50,6,ls),
(48,3,o),
(49,0,o),
(53,0,cs),
(97,0,ls),
(99,0,o),
(102,1,o),
(103,3,cs),
(376,349,ls),
(378,352,o),
(378,353,o),
(376,356,cs)
);
}
);
width = 730;
}
);
unicode = 88;
},
{
glyphname = Y;
lastChange = "2025-06-27 17:19:40 +0000";
layers = (
{
layerId = m002;
shapes = (
{
closed = 1;
nodes = (
(343,264,ls),
(347,264,o),
(349,266,o),
(347,270,cs),
(114,696,ls),
(113,698,o),
(110,700,o),
(108,700,cs),
(37,700,ls),
(33,700,o),
(31,698,o),
(33,694,cs),
(266,268,ls),
(267,266,o),
(270,264,o),
(272,264,cs)
);
},
{
closed = 1;
nodes = (
(345,0,ls),
(348,0,o),
(350,2,o),
(350,5,cs),
(350,270,ls),
(350,273,o),
(348,275,o),
(345,275,cs),
(273,275,ls),
(270,275,o),
(268,273,o),
(268,270,cs),
(268,5,ls),
(268,2,o),
(270,0,o),
(273,0,cs)
);
},
{
closed = 1;
nodes = (
(346,264,ls),
(348,264,o),
(351,266,o),
(352,268,cs),
(587,694,ls),
(589,698,o),
(587,700,o),
(583,700,cs),
(548,700,ls),
(546,700,o),
(543,698,o),
(542,696,cs),
(311,270,ls),
(309,266,o),
(311,264,o),
(315,264,cs)
);
}
);
width = 620;
}
);
unicode = 89;
},
{
glyphname = Z;
lastChange = "2025-06-27 17:19:40 +0000";
layers = (
{
layerId = m002;
shapes = (
{
closed = 1;
nodes = (
(50,5,ls),
(50,1,o),
(52,0,o),
(55,0,cs),
(595,0,ls),
(598,0,o),
(600,2,o),
(600,5,cs),
(600,31,ls),
(600,34,o),
(598,36,o),
(595,36,cs),
(145,36,l),
(568,661,ls),
(569,663,o),
(570,665,o),
(570,667,cs),
(570,695,ls),
(570,698,o),
(568,700,o),
(565,700,cs),
(56,700,ls),
(53,700,o),
(51,698,o),
(51,695,cs),
(51,669,ls),
(51,666,o),
(53,664,o),
(56,664,cs),
(476,664,l),
(53,39,ls),
(52,37,o),
(51,36,o),
(51,33,cs)
);
}
);
width = 650;
}
);
unicode = 90;
},
{
glyphname = a;
lastChange = "2025-06-27 17:19:40 +0000";
layers = (
{
layerId = m002;
shapes = (
{
closed = 1;
nodes = (
(65,13,o),
(135,-16,o),
(291,-16,cs),
(342,-16,o),
(401,-1,o),
(447,40,c),
(447,5,ls),
(447,2,o),
(449,0,o),
(452,0,cs),
(570,0,ls),
(573,0,o),
(575,2,o),
(575,5,cs),
(575,268,l),
(575,331,l),
(575,471,o),
(437,515,o),
(336,515,cs),
(250,515,o),
(112,471,o),
(107,369,cs),
(107,366,o),
(109,364,o),
(112,364,cs),
(233,364,ls),
(236,364,o),
(238,366,o),
(238,369,cs),
(239,442,o),
(268,487,o),
(336,487,cs),
(423,487,o),
(443,433,o),
(443,330,c),
(443,281,l),
(386,281,ls),
(133,281,o),
(65,249,o),
(65,132,cs)
);
},
{
closed = 1;
nodes = (
(443,69,o),
(387,13,o),
(318,13,cs),
(255,13,o),
(198,44,o),
(198,134,cs),
(198,228,o),
(259,251,o),
(386,251,cs),
(443,251,l),
(443,115,ls)
);
}
);
width = 640;
}
);
unicode = 97;
},
{
glyphname = b;
lastChange = "2025-06-27 17:19:40 +0000";
layers = (
{
layerId = m002;
shapes = (
{
closed = 1;
nodes = (
(70,760,ls),
(67,760,o),
(65,758,o),
(65,755,cs),
(65,5,ls),
(65,2,o),
(67,0,o),
(70,0,cs),
(192,0,ls),
(195,0,o),
(197,2,o),
(197,5,cs),
(197,30,l),
(237,-2,o),
(286,-16,o),
(335,-16,cs),
(435,-16,o),
(605,16,o),
(605,250,cs),
(605,486,o),
(455,516,o),
(355,516,cs),
(242,516,o),
(197,435,o),
(197,450,cs),
(197,755,ls),
(197,758,o),
(195,760,o),
(192,760,cs)
);
},
{
closed = 1;
nodes = (
(422,488,o),
(472,445,o),
(472,303,cs),
(472,187,ls),
(472,55,o),
(422,12,o),
(335,12,cs),
(226,12,o),
(197,64,o),
(197,125,c),
(197,362,ls),
(197,428,o),
(259,488,o),
(335,488,cs)
);
}
);
width = 645;
}
);
unicode = 98;
},
{
glyphname = c;
lastChange = "2025-06-27 17:19:40 +0000";
layers = (
{
layerId = m002;
shapes = (
{
closed = 1;
nodes = (
(474,155,ls),
(471,155,o),
(469,153,o),
(469,150,cs),
(467,58,o),
(423,12,o),
(330,12,cs),
(223,12,o),
(173,60,o),
(173,227,cs),
(173,263,ls),
(173,435,o),
(223,488,o),
(330,488,cs),
(426,488,o),
(471,437,o),
(472,333,cs),
(472,330,o),
(474,328,o),
(477,328,cs),
(596,328,ls),
(599,328,o),
(601,330,o),
(601,333,cs),
(597,460,o),
(441,516,o),
(330,516,cs),
(200,516,o),
(40,456,o),
(40,250,cs),
(40,46,o),
(200,-16,o),
(330,-16,cs),
(435,-16,o),
(592,36,o),
(597,150,cs),
(597,153,o),
(595,155,o),
(592,155,cs)
);
}
);
width = 641;
}
);
unicode = 99;
},
{
glyphname = d;
lastChange = "2025-06-27 17:19:40 +0000";
layers = (
{
layerId = m002;
shapes = (
{
closed = 1;
nodes = (
(448,433,l),
(448,418,o),
(431,516,o),
(280,516,cs),
(180,516,o),
(40,466,o),
(40,250,cs),
(40,36,o),
(180,-16,o),
(280,-16,cs),
(359,-16,o),
(408,-2,o),
(448,30,c),
(448,5,ls),
(448,2,o),
(450,0,o),
(453,0,cs),
(575,0,ls),
(578,0,o),
(580,2,o),
(580,5,cs),
(580,755,ls),
(580,758,o),
(578,760,o),
(575,760,cs),
(453,760,ls),
(450,760,o),
(448,758,o),
(448,755,cs)
);
},
{
closed = 1;
nodes = (
(386,488,o),
(448,428,o),
(448,362,cs),
(448,125,l),
(443,63,o),
(399,12,o),
(310,12,cs),
(223,12,o),
(173,105,o),
(173,227,cs),
(173,263,ls),
(173,415,o),
(223,488,o),
(320,488,cs)
);
},
{
closed = 1;
nodes = (
(310,14,l),
(310,12,l)
);
}
);
width = 645;
}
);
unicode = 100;
},
{
glyphname = e;
lastChange = "2025-06-27 17:19:40 +0000";
layers = (
{
layerId = m002;
shapes = (
{
closed = 1;
nodes = (
(479,248,ls),
(482,248,o),
(484,250,o),
(484,253,cs),
(484,275,ls),
(484,278,o),
(482,280,o),
(479,280,cs),
(155,280,ls),
(152,280,o),
(150,278,o),
(150,275,cs),
(150,253,ls),
(150,250,o),
(152,248,o),
(155,248,cs)
);
},
{
closed = 1;
nodes = (
(472,176,ls),
(469,176,o),
(467,174,o),
(467,171,cs),
(466,68,o),
(430,12,o),
(330,12,cs),
(223,12,o),
(173,70,o),
(173,237,cs),
(173,273,ls),
(173,430,o),
(223,488,o),
(320,488,cs),
(427,488,o),
(466,431,o),
(467,253,cs),
(467,250,o),
(469,248,o),
(472,248,cs),
(595,248,ls),
(598,248,o),
(600,250,o),
(600,253,cs),
(598,459,o),
(447,516,o),
(320,516,cs),
(200,516,o),
(40,456,o),
(40,250,cs),
(40,46,o),
(200,-16,o),
(330,-16,cs),
(442,-16,o),
(596,23,o),
(600,171,cs),
(600,174,o),
(598,176,o),
(595,176,cs)
);
}
);
width = 640;
}
);
unicode = 101;
},
{
glyphname = f;
lastChange = "2025-06-27 17:19:40 +0000";
layers = (
{
layerId = m002;
shapes = (
{
closed = 1;
nodes = (
(398,748,o),
(407,713,o),
(407,631,cs),
(407,627,o),
(409,625,o),
(412,625,cs),
(530,625,ls),
(533,625,o),
(535,627,o),
(535,630,cs),
(531,732,o),
(424,776,o),
(343,776,cs),
(271,776,o),
(118,758,o),
(118,501,cs),
(118,5,ls),
(118,2,o),
(120,0,o),
(123,0,cs),
(245,0,ls),
(248,0,o),
(250,2,o),
(250,5,cs),
(250,625,ls),
(250,711,o),
(270,748,o),
(329,748,cs)
);
},
{
closed = 1;
nodes = (
(40,475,ls),
(40,472,o),
(42,470,o),
(45,470,cs),
(353,470,ls),
(356,470,o),
(358,472,o),
(358,475,cs),
(358,495,ls),
(358,498,o),
(356,500,o),
(353,500,cs),
(45,500,ls),
(42,500,o),
(40,498,o),
(40,495,cs)
);
}
);
width = 398;
}
);
unicode = 102;
},
{
glyphname = g;
lastChange = "2025-06-27 17:19:40 +0000";
layers = (
{
layerId = m002;
shapes = (
{
closed = 1;
nodes = (
(410,244,o),
(390,157,o),
(283,157,cs),
(176,157,o),
(156,244,o),
(156,316,cs),
(156,336,ls),
(156,398,o),
(176,485,o),
(283,485,cs),
(390,485,o),
(410,398,o),
(410,336,cs),
(410,316,ls)
);
},
{
closed = 1;
nodes = (
(23,189,o),
(163,127,o),
(283,127,cs),
(403,127,o),
(543,189,o),
(543,324,cs),
(543,328,ls),
(543,463,o),
(403,515,o),
(283,515,cs),
(163,515,o),
(23,463,o),
(23,328,cs),
(23,324,ls)
);
},
{
closed = 1;
nodes = (
(59,121,o),
(61,48,o),
(155,10,c),
(73,-19,o),
(10,-48,o),
(10,-100,cs),
(10,-211,o),
(185,-234,o),
(326,-234,cs),
(424,-234,o),
(606,-217,o),
(606,-101,cs),
(606,-1,o),
(538,43,o),
(407,57,cs),
(356,62,o),
(304,66,o),
(253,66,cs),
(164,66,o),
(118,111,o),
(161,175,cs),
(163,177,o),
(162,181,o),
(159,182,cs),
(134,195,ls),
(131,197,o),
(129,196,o),
(127,194,cs)
);
},
{
closed = 1;
nodes = (
(219,-199,o),
(148,-187,o),
(148,-109,cs),
(148,-64,o),
(183,-19,o),
(219,-2,c),
(275,-2,o),
(331,-3,o),
(387,-13,cs),
(472,-28,o),
(519,-55,o),
(519,-105,cs),
(519,-180,o),
(425,-199,o),
(329,-199,cs)
);
},
{
closed = 1;
nodes = (
(428,463,ls),
(430,462,o),
(431,461,o),
(434,460,cs),
(582,432,ls),
(585,431,o),
(587,434,o),
(587,437,cs),
(587,495,ls),
(587,498,o),
(585,500,o),
(582,500,cs),
(372,500,ls),
(367,500,o),
(366,497,o),
(371,494,cs)
);
}
);
width = 616;
}
);
unicode = 103;
},
{
glyphname = h;
lastChange = "2025-06-27 17:19:40 +0000";
layers = (
{
layerId = m002;
shapes = (
{
closed = 1;
nodes = (
(192,0,ls),
(195,0,o),
(197,2,o),
(197,5,cs),
(197,755,ls),
(197,758,o),
(195,760,o),
(192,760,cs),
(70,760,ls),
(67,760,o),
(65,758,o),
(65,755,cs),
(65,5,ls),
(65,2,o),
(67,0,o),
(70,0,cs)
);
},
{
closed = 1;
nodes = (
(570,0,ls),
(573,0,o),
(575,2,o),
(575,5,cs),
(575,352,ls),
(575,469,o),
(472,516,o),
(355,516,cs),
(254,516,o),
(197,446,o),
(197,430,cs),
(197,362,l),
(197,428,o),
(262,486,o),
(325,486,cs),
(389,486,o),
(443,458,o),
(443,352,cs),
(443,5,ls),
(443,2,o),
(445,0,o),
(448,0,cs)
);
}
);
width = 640;
}
);
unicode = 104;
},
{
glyphname = i;
lastChange = "2025-06-27 17:19:40 +0000";
layers = (
{
layerId = m002;
shapes = (
{
closed = 1;
nodes = (
(199,0,ls),
(202,0,o),
(204,2,o),
(204,5,cs),
(204,495,ls),
(204,498,o),
(202,500,o),
(199,500,cs),
(75,500,ls),
(72,500,o),
(70,498,o),
(70,495,cs),
(70,5,ls),
(70,2,o),
(72,0,o),
(75,0,cs)
);
},
{
closed = 1;
nodes = (
(187,568,o),
(210,585,o),
(210,615,cs),
(210,645,o),
(187,661,o),
(138,661,cs),
(88,661,o),
(65,645,o),
(65,615,cs),
(65,585,o),
(88,568,o),
(138,568,cs)
);
}
);
width = 223;
}
);
unicode = 105;
},
{
glyphname = j;
lastChange = "2025-06-27 17:19:40 +0000";
layers = (
{
layerId = m002;
shapes = (
{
closed = 1;
nodes = (
(70,20,ls),
(70,-112,o),
(79,-200,o),
(2,-200,cs),
(-57,-200,o),
(-56,-155,o),
(-56,-82,cs),
(-56,-79,o),
(-58,-77,o),
(-61,-77,cs),
(-159,-77,ls),
(-162,-77,o),
(-164,-79,o),
(-164,-82,cs),
(-162,-184,o),
(-91,-228,o),
(2,-228,cs),
(92,-228,o),
(202,-157,o),
(202,19,cs),
(202,495,ls),
(202,498,o),
(200,500,o),
(197,500,cs),
(75,500,ls),
(72,500,o),
(70,498,o),
(70,495,cs)
);
},
{
closed = 1;
nodes = (
(187,568,o),
(210,585,o),
(210,615,cs),
(210,645,o),
(187,661,o),
(138,661,cs),
(88,661,o),
(65,645,o),
(65,615,cs),
(65,585,o),
(88,568,o),
(138,568,cs)
);
}
);
width = 223;
}
);
unicode = 106;
},
{
glyphname = k;
lastChange = "2025-06-27 17:19:40 +0000";
layers = (
{
background = {
shapes = (
{
closed = 0;
nodes = (
(557,0,l),
(336,338,l)
);
}
);
};
layerId = m002;
shapes = (
{
closed = 1;
nodes = (
(162,202,ls),
(164,202,o),
(167,203,o),
(169,205,cs),
(467,495,ls),
(470,498,o),
(468,501,o),
(464,501,cs),
(434,501,ls),
(432,501,o),
(429,500,o),
(427,498,cs),
(129,208,ls),
(126,205,o),
(128,202,o),
(132,202,cs)
);
},
{
closed = 1;
nodes = (
(70,760,ls),
(67,760,o),
(65,758,o),
(65,755,cs),
(65,5,ls),
(65,2,o),
(67,0,o),
(70,0,cs),
(192,0,ls),
(195,0,o),
(197,2,o),
(197,5,cs),
(197,755,ls),
(197,758,o),
(195,760,o),
(192,760,cs)
);
},
{
closed = 1;
nodes = (
(237,291,ls),
(235,289,o),
(236,286,o),
(237,284,cs),
(423,3,ls),
(424,1,o),
(427,0,o),
(429,0,cs),
(550,0,ls),
(554,0,o),
(555,2,o),
(553,6,cs),
(319,364,ls),
(317,367,o),
(315,368,o),
(312,365,cs)
);
}
);
width = 567;
}
);
unicode = 107;
},
{
glyphname = l;
lastChange = "2025-06-27 17:19:40 +0000";
layers = (
{
layerId = m002;
shapes = (
{
closed = 1;
nodes = (
(192,0,ls),
(195,0,o),
(197,2,o),
(197,5,cs),
(197,755,ls),
(197,758,o),
(195,760,o),
(192,760,cs),
(70,760,ls),
(67,760,o),
(65,758,o),
(65,755,cs),
(65,5,ls),
(65,2,o),
(67,0,o),
(70,0,cs)
);
}
);
width = 262;
}
);
unicode = 108;
},
{
glyphname = m;
lastChange = "2025-06-27 17:19:40 +0000";
layers = (
{
layerId = m002;
shapes = (
{
closed = 1;
nodes = (
(192,0,ls),
(195,0,o),
(197,2,o),
(197,5,cs),
(197,495,ls),
(197,498,o),
(195,500,o),
(192,500,cs),
(70,500,ls),
(67,500,o),
(65,498,o),
(65,495,cs),
(65,5,ls),
(65,2,o),
(67,0,o),
(70,0,cs)
);
},
{
closed = 1;
nodes = (
(570,0,ls),
(573,0,o),
(575,2,o),
(575,5,cs),
(575,352,ls),
(575,469,o),
(472,516,o),
(355,516,cs),
(254,516,o),
(197,446,o),
(197,430,cs),
(197,362,l),
(197,428,o),
(262,486,o),
(325,486,cs),
(389,486,o),
(443,458,o),
(443,352,cs),
(443,5,ls),
(443,2,o),
(445,0,o),
(448,0,cs)
);
},
{
closed = 1;
nodes = (
(948,0,ls),
(951,0,o),
(953,2,o),
(953,5,cs),
(953,352,ls),
(953,469,o),
(850,516,o),
(733,516,cs),
(632,516,o),
(560,441,o),
(560,407,c),
(575,362,l),
(575,428,o),
(640,486,o),
(703,486,cs),
(767,486,o),
(821,458,o),
(821,352,cs),
(821,5,ls),
(821,2,o),
(823,0,o),
(826,0,cs)
);
}
);
width = 1018;
}
);
unicode = 109;
},
{
glyphname = n;
lastChange = "2025-06-27 17:19:40 +0000";
layers = (
{
layerId = m002;
shapes = (
{
closed = 1;
nodes = (
(192,0,ls),
(195,0,o),
(197,2,o),
(197,5,cs),
(197,495,ls),
(197,498,o),
(195,500,o),
(192,500,cs),
(70,500,ls),
(67,500,o),
(65,498,o),
(65,495,cs),
(65,5,ls),
(65,2,o),
(67,0,o),
(70,0,cs)
);
},
{
closed = 1;
nodes = (
(570,0,ls),
(573,0,o),
(575,2,o),
(575,5,cs),
(575,352,ls),
(575,469,o),
(472,516,o),
(355,516,cs),
(254,516,o),
(197,446,o),
(197,430,cs),
(197,362,l),
(197,428,o),
(262,486,o),
(325,486,cs),
(389,486,o),
(443,458,o),
(443,352,cs),
(443,5,ls),
(443,2,o),
(445,0,o),
(448,0,cs)
);
}
);
width = 640;
}
);
unicode = 110;
},
{
glyphname = o;
lastChange = "2025-06-27 17:19:40 +0000";
layers = (
{
layerId = m002;
shapes = (
{
closed = 1;
nodes = (
(233,12,o),
(173,75,o),
(173,217,cs),
(173,273,ls),
(173,425,o),
(233,488,o),
(340,488,cs),
(447,488,o),
(507,425,o),
(507,273,cs),
(507,217,ls),
(507,75,o),
(447,12,o),
(340,12,cs)
);
},
{
closed = 1;
nodes = (
(40,16,o),
(220,-16,o),
(340,-16,cs),
(460,-16,o),
(640,16,o),
(640,250,cs),
(640,486,o),
(460,516,o),
(340,516,cs),
(220,516,o),
(40,486,o),
(40,250,cs)
);
}
);
width = 680;
}
);
unicode = 111;
},
{
glyphname = p;
lastChange = "2025-06-27 17:19:40 +0000";
layers = (
{
layerId = m002;
shapes = (
{
closed = 1;
nodes = (
(70,495,ls),
(67,495,o),
(65,493,o),
(65,490,cs),
(65,-207,ls),
(65,-210,o),
(67,-212,o),
(70,-212,cs),
(192,-212,ls),
(195,-212,o),
(197,-210,o),
(197,-207,cs),
(197,30,l),
(237,-2,o),
(276,-16,o),
(335,-16,cs),
(475,-16,o),
(605,66,o),
(605,250,cs),
(605,436,o),
(495,516,o),
(355,516,cs),
(254,516,o),
(197,445,o),
(197,430,cs),
(197,490,ls),
(197,493,o),
(195,495,o),
(192,495,cs)
);
},
{
closed = 1;
nodes = (
(422,488,o),
(472,453,o),
(472,323,cs),
(472,177,ls),
(472,55,o),
(422,12,o),
(335,12,cs),
(226,12,o),
(202,63,o),
(197,125,c),
(197,362,ls),
(197,428,o),
(259,488,o),
(335,488,cs)
);
}
);
width = 645;
}
);
unicode = 112;
},
{
glyphname = q;
lastChange = "2025-06-27 17:19:40 +0000";
layers = (
{
layerId = m002;
shapes = (
{
closed = 1;
nodes = (
(448,430,ls),
(448,415,o),
(416,516,o),
(300,516,cs),
(200,516,o),
(40,476,o),
(40,250,cs),
(40,26,o),
(210,-16,o),
(310,-16,cs),
(359,-16,o),
(408,-2,o),
(448,30,c),
(448,-207,ls),
(448,-210,o),
(450,-212,o),
(453,-212,cs),
(575,-212,ls),
(578,-212,o),
(580,-210,o),
(580,-207,cs),
(580,495,ls),
(580,498,o),
(578,500,o),
(575,500,cs),
(453,500,ls),
(450,500,o),
(448,498,o),
(448,495,cs)
);
},
{
closed = 1;
nodes = (
(386,488,o),
(448,408,o),
(448,342,cs),
(448,125,l),
(443,63,o),
(419,12,o),
(310,12,cs),
(223,12,o),
(173,55,o),
(173,177,cs),
(173,313,ls),
(173,445,o),
(223,488,o),
(310,488,cs)
);
}
);
width = 645;
}
);
unicode = 113;
},
{
glyphname = r;
lastChange = "2025-06-27 17:19:40 +0000";
layers = (
{
layerId = m002;
shapes = (
{
closed = 1;
nodes = (
(192,0,ls),
(195,0,o),
(197,2,o),
(197,5,cs),
(197,495,ls),
(197,498,o),
(195,500,o),
(192,500,cs),
(70,500,ls),
(67,500,o),
(65,498,o),
(65,495,cs),
(65,5,ls),
(65,2,o),
(67,0,o),
(70,0,cs)
);
},
{
closed = 1;
nodes = (
(197,428,o),
(246,486,o),
(301,486,cs),
(357,486,o),
(372,459,o),
(373,370,cs),
(373,367,o),
(375,365,o),
(378,365,cs),
(500,365,ls),
(503,365,o),
(505,367,o),
(505,370,cs),
(504,471,o),
(476,516,o),
(352,516,cs),
(235,516,o),
(197,446,o),
(197,430,c),
(197,362,l)
);
}
);
width = 570;
}
);
unicode = 114;
},
{
glyphname = s;
lastChange = "2025-06-27 17:19:40 +0000";
layers = (
{
layerId = m002;
shapes = (
{
closed = 1;
nodes = (
(433,392,ls),
(436,392,o),
(438,394,o),
(438,397,cs),
(434,499,o),
(299,516,o),
(221,516,cs),
(126,516,o),
(32,464,o),
(32,364,cs),
(32,272,o),
(95,232,o),
(156,214,cs),
(226,193,ls),
(266,181,o),
(388,157,o),
(388,95,cs),
(388,42,o),
(321,16,o),
(272,16,cs),
(169,16,o),
(135,65,o),
(133,127,cs),
(133,130,o),
(131,132,o),
(128,132,cs),
(20,132,ls),
(17,132,o),
(15,130,o),
(15,127,cs),
(19,13,o),
(165,-16,o),
(266,-16,cs),
(384,-16,o),
(453,49,o),
(453,143,cs),
(453,251,o),
(330,287,o),
(286,300,cs),
(216,321,ls),
(200,326,o),
(90,353,o),
(90,410,cs),
(90,457,o),
(142,485,o),
(207,485,cs),
(274,485,o),
(318,449,o),
(321,397,cs),
(321,394,o),
(323,392,o),
(326,392,cs)
);
}
);
width = 478;
}
);
unicode = 115;
},
{
glyphname = t;
lastChange = "2025-06-27 17:19:40 +0000";
layers = (
{
layerId = m002;
shapes = (
{
closed = 1;
nodes = (
(333,0,ls),
(336,0,o),
(338,2,o),
(338,5,cs),
(338,23,ls),
(338,26,o),
(336,28,o),
(333,28,cs),
(293,28,ls),
(221,30,o),
(220,85,o),
(220,214,cs),
(220,470,l),
(333,470,ls),
(336,470,o),
(338,472,o),
(338,475,cs),
(338,495,ls),
(338,498,o),
(336,500,o),
(333,500,cs),
(220,500,l),
(220,655,ls),
(220,658,o),
(218,660,o),
(215,660,cs),
(93,660,ls),
(90,660,o),
(88,658,o),
(88,655,cs),
(88,500,l),
(15,500,ls),
(12,500,o),
(10,498,o),
(10,495,cs),
(10,475,ls),
(10,472,o),
(12,470,o),
(15,470,cs),
(88,470,l),
(88,150,ls),
(88,12,o),
(205,1,o),
(293,0,cs)
);
}
);
width = 348;
}
);
unicode = 116;
},
{
glyphname = u;
lastChange = "2025-06-27 17:19:40 +0000";
layers = (
{
layerId = m002;
shapes = (
{
closed = 1;
nodes = (
(570,0,ls),
(573,0,o),
(575,2,o),
(575,5,cs),
(575,495,ls),
(575,498,o),
(573,500,o),
(570,500,cs),
(448,500,ls),
(445,500,o),
(443,498,o),
(443,495,cs),
(443,138,l),
(443,72,o),
(378,14,o),
(315,14,cs),
(251,14,o),
(197,42,o),
(197,148,cs),
(197,495,ls),
(197,498,o),
(195,500,o),
(192,500,cs),
(70,500,ls),
(67,500,o),
(65,498,o),
(65,495,cs),
(65,148,ls),
(65,31,o),
(168,-16,o),
(285,-16,cs),
(386,-16,o),
(443,54,o),
(443,70,cs),
(443,5,ls),
(443,2,o),
(445,0,o),
(448,0,cs)
);
}
);
width = 640;
}
);
unicode = 117;
},
{
glyphname = v;
lastChange = "2025-06-27 17:19:40 +0000";
layers = (
{
layerId = m002;
shapes = (
{
closed = 1;
nodes = (
(334,0,ls),
(337,0,o),
(339,2,o),
(338,6,cs),
(163,496,ls),
(162,498,o),
(161,500,o),
(158,500,cs),
(31,500,ls),
(28,500,o),
(26,498,o),
(27,494,cs),
(202,4,ls),
(203,2,o),
(204,0,o),
(207,0,cs)
);
},
{
closed = 1;
nodes = (
(310,6,ls),
(309,2,o),
(311,0,o),
(314,0,cs),
(336,0,ls),
(339,0,o),
(340,2,o),
(341,4,cs),
(518,494,ls),
(519,498,o),
(517,500,o),
(514,500,cs),
(488,500,ls),
(485,500,o),
(484,498,o),
(483,496,cs)
);
}
);
width = 545;
}
);
unicode = 118;
},
{
glyphname = w;
lastChange = "2025-06-27 17:19:40 +0000";
layers = (
{
layerId = m002;
shapes = (
{
closed = 1;
nodes = (
(314,0,ls),
(317,0,o),
(319,2,o),
(318,6,cs),
(163,496,ls),
(162,498,o),
(161,500,o),
(158,500,cs),
(31,500,ls),
(28,500,o),
(26,498,o),
(27,494,cs),
(182,4,ls),
(183,2,o),
(184,0,o),
(187,0,cs)
);
},
{
closed = 1;
nodes = (
(290,6,ls),
(289,2,o),
(291,0,o),
(294,0,cs),
(316,0,ls),
(319,0,o),
(320,2,o),
(321,4,cs),
(478,494,ls),
(479,498,o),
(477,500,o),
(474,500,cs),
(448,500,ls),
(445,500,o),
(444,498,o),
(443,496,cs)
);
},
{
closed = 1;
nodes = (
(682,0,ls),
(685,0,o),
(687,2,o),
(686,6,cs),
(531,496,ls),
(530,498,o),
(529,500,o),
(526,500,cs),
(448,500,ls),
(445,500,o),
(444,498,o),
(443,496,cs),
(421,425,ls),
(420,422,o),
(420,422,o),
(421,419,cs),
(550,4,ls),
(551,2,o),
(552,0,o),
(555,0,cs)
);
},
{
closed = 1;
nodes = (
(658,6,ls),
(657,2,o),
(659,0,o),
(662,0,cs),
(684,0,ls),
(687,0,o),
(688,2,o),
(689,4,cs),
(846,494,ls),
(847,498,o),
(845,500,o),
(842,500,cs),
(816,500,ls),
(813,500,o),
(812,498,o),
(811,496,cs)
);
}
);
width = 873;
}
);
unicode = 119;
},
{
glyphname = x;
lastChange = "2025-06-27 17:19:40 +0000";
layers = (
{
layerId = m002;
shapes = (
{
closed = 1;
nodes = (
(575,0,ls),
(579,0,o),
(580,3,o),
(578,6,cs),
(186,497,ls),
(185,499,o),
(182,500,o),
(180,500,cs),
(33,500,ls),
(29,500,o),
(28,497,o),
(30,494,cs),
(422,3,ls),
(423,1,o),
(426,0,o),
(428,0,cs)
);
},
{
closed = 1;
nodes = (
(335,273,ls),
(337,273,o),
(340,274,o),
(341,276,cs),
(515,494,ls),
(517,497,o),
(516,500,o),
(512,500,cs),
(485,500,ls),
(483,500,o),
(480,499,o),
(479,497,cs),
(305,279,ls),
(303,276,o),
(304,273,o),
(308,273,cs)
);
},
{
closed = 1;
nodes = (
(287,273,ls),
(285,273,o),
(282,272,o),
(281,270,cs),
(70,6,ls),
(68,3,o),
(69,0,o),
(73,0,cs),
(100,0,ls),
(102,0,o),
(105,1,o),
(106,3,cs),
(317,267,ls),
(319,270,o),
(318,273,o),
(314,273,cs)
);
}
);
width = 608;
}
);
unicode = 120;
},
{
glyphname = y;
lastChange = "2025-06-27 17:19:40 +0000";
layers = (
{
layerId = m002;
shapes = (
{
closed = 1;
nodes = (
(294,-3,ls),
(295,-1,o),
(296,1,o),
(295,4,cs),
(113,496,ls),
(112,498,o),
(110,500,o),
(108,500,cs),
(-19,500,ls),
(-22,500,o),
(-24,498,o),
(-23,494,cs),
(206,-132,ls),
(207,-136,o),
(211,-135,o),
(213,-132,cs)
);
},
{
closed = 1;
nodes = (
(76,-207,ls),
(76,-210,o),
(78,-212,o),
(81,-212,cs),
(196,-211,o),
(234,-165,o),
(297,0,cs),
(487,494,ls),
(488,498,o),
(486,500,o),
(483,500,cs),
(454,500,ls),
(452,500,o),
(450,498,o),
(449,496,cs),
(261,0,ls),
(216,-119,o),
(206,-179,o),
(81,-180,cs),
(78,-180,o),
(76,-182,o),
(76,-185,cs)
);
}
);
width = 511;
}
);
unicode = 121;
},
{
glyphname = z;
lastChange = "2025-06-27 17:19:40 +0000";
layers = (
{
layerId = m002;
shapes = (
{
closed = 1;
nodes = (
(520,27,ls),
(520,30,o),
(518,32,o),
(515,32,cs),
(95,32,ls),
(92,32,o),
(90,30,o),
(90,27,cs),
(90,5,ls),
(90,2,o),
(92,0,o),
(95,0,cs),
(515,0,ls),
(518,0,o),
(520,2,o),
(520,5,cs)
);
},
{
closed = 1;
nodes = (
(515,495,ls),
(515,498,o),
(513,500,o),
(510,500,cs),
(96,500,ls),
(93,500,o),
(91,498,o),
(91,495,cs),
(91,475,ls),
(91,472,o),
(93,470,o),
(96,470,cs),
(510,470,ls),
(513,470,o),
(515,472,o),
(515,475,cs)
);
},
{
closed = 1;
nodes = (
(372,470,ls),
(370,470,o),
(367,469,o),
(366,467,cs),
(95,38,ls),
(93,34,o),
(94,32,o),
(98,32,cs),
(234,32,ls),
(236,32,o),
(239,33,o),
(240,35,cs),
(511,464,ls),
(513,468,o),
(512,470,o),
(508,470,cs)
);
}
);
width = 580;
}
);
unicode = 122;
},
{
glyphname = period;
lastChange = "2025-06-27 17:19:40 +0000";
layers = (
{
layerId = m002;
shapes = (
{
closed = 1;
nodes = (
(111,-16,o),
(132,4,o),
(132,40,cs),
(132,76,o),
(111,96,o),
(76,96,cs),
(40,96,o),
(20,76,o),
(20,40,cs),
(20,4,o),
(40,-16,o),
(76,-16,cs)
);
}
);
width = 152;
}
);
unicode = 46;
},
